<?xml version="1.0" encoding="iso-8859-1"?>
<!-- Uploaded to: SVG Repo, www.svgrepo.com, Generator: SVG Repo Mixer Tools -->
<svg version="1.1" id="Layer_1" xmlns="http://www.w3.org/2000/svg" xmlns:xlink="http://www.w3.org/1999/xlink" 
	 viewBox="0 0 511.985 511.985" xml:space="preserve">
<path style="fill:#656D78;" d="M479.984,138.664h-60.436l-14.218-10.671H106.653l-14.218,10.671H31.999
	c0,0-31.999,21.937-31.999,117.325c0,95.379,31.999,117.316,31.999,117.316h60.436l14.218,10.688H405.33l14.219-10.688h60.436
	c0,0,32-21.938,32-117.316C511.984,160.601,479.984,138.664,479.984,138.664z"/>
<g>
	<path style="fill:#AAB2BC;" d="M447.986,234.661c0,5.891-4.781,10.656-10.656,10.656c-5.906,0-10.688-4.766-10.688-10.656
		s4.781-10.671,10.688-10.671C443.205,223.99,447.986,228.771,447.986,234.661z"/>
	<path style="fill:#AAB2BC;" d="M447.986,277.307c0,5.875-4.781,10.655-10.656,10.655c-5.906,0-10.688-4.78-10.688-10.655
		c0-5.883,4.781-10.648,10.688-10.648C443.205,266.659,447.986,271.426,447.986,277.307z"/>
	<path style="fill:#AAB2BC;" d="M469.328,255.989c0,5.891-4.781,10.671-10.686,10.671c-5.875,0-10.656-4.78-10.656-10.671
		c0-5.891,4.781-10.672,10.656-10.672C464.547,245.317,469.328,250.098,469.328,255.989z"/>
	<path style="fill:#AAB2BC;" d="M426.642,255.989c0,5.891-4.781,10.671-10.656,10.671c-5.906,0-10.656-4.78-10.656-10.671
		c0-5.891,4.75-10.672,10.656-10.672C421.861,245.317,426.642,250.098,426.642,255.989z"/>
</g>
<rect x="127.992" y="170.663" style="fill:#AC92EB;" width="255.99" height="170.64"/>
<path style="fill:#AAB2BC;" d="M95.997,245.317H85.325v-10.656c0-5.89-4.781-10.671-10.671-10.671s-10.656,4.781-10.656,10.671
	v10.656H53.326c-5.89,0-10.671,4.781-10.671,10.672c0,5.891,4.781,10.671,10.671,10.671h10.672v10.648
	c0,5.875,4.765,10.655,10.656,10.655c5.891,0,10.671-4.78,10.671-10.655v-10.648h10.672c5.875,0,10.656-4.78,10.656-10.671
	C106.653,250.097,101.872,245.317,95.997,245.317z"/>
<g>
	<path style="fill:#434A54;" d="M223.993,351.992c-5.906,0-10.671,4.781-10.671,10.656c0,5.906,4.766,10.656,10.671,10.656
		c5.875,0,10.656-4.75,10.656-10.656C234.649,356.773,229.868,351.992,223.993,351.992z"/>
	<path style="fill:#434A54;" d="M191.994,351.992c-5.906,0-10.671,4.781-10.671,10.656c0,5.906,4.766,10.656,10.671,10.656
		c5.875,0,10.656-4.75,10.656-10.656C202.65,356.773,197.869,351.992,191.994,351.992z"/>
	<path style="fill:#434A54;" d="M159.995,351.992h-21.343c-5.891,0-10.656,4.781-10.656,10.656c0,5.906,4.765,10.656,10.656,10.656
		h21.343c5.875,0,10.656-4.75,10.656-10.656C170.651,356.773,165.87,351.992,159.995,351.992z"/>
	<path style="fill:#434A54;" d="M373.332,351.992h-21.344c-5.906,0-10.656,4.781-10.656,10.656c0,5.906,4.75,10.656,10.656,10.656
		h21.344c5.875,0,10.656-4.75,10.656-10.656C383.988,356.773,379.207,351.992,373.332,351.992z"/>
	<path style="fill:#434A54;" d="M319.99,351.992h-21.344c-5.875,0-10.656,4.781-10.656,10.656c0,5.906,4.781,10.656,10.656,10.656
		h21.344c5.875,0,10.656-4.75,10.656-10.656C330.646,356.773,325.865,351.992,319.99,351.992z"/>
</g>
<path style="fill:#FFCE54;" d="M213.337,256.004l37.264-20.812c-1.875-3.343-4.234-6.5-7.078-9.343
	c-16.671-16.672-43.702-16.672-60.357,0c-16.671,16.655-16.671,43.67,0,60.334c16.656,16.655,43.686,16.655,60.357,0
	c2.844-2.844,5.203-6,7.078-9.344L213.337,256.004z"/>
<g>
	<path style="fill:#ED5564;" d="M284.865,263.551c-4.172,4.171-10.92,4.171-15.092,0c-4.156-4.156-4.156-10.922,0-15.078
		c4.172-4.172,10.92-4.172,15.092,0C289.021,252.63,289.021,259.395,284.865,263.551z"/>
	<path style="fill:#ED5564;" d="M316.865,263.551c-4.172,4.171-10.922,4.171-15.094,0c-4.156-4.156-4.156-10.922,0-15.078
		c4.172-4.172,10.922-4.172,15.094,0C321.021,252.63,321.037,259.395,316.865,263.551z"/>
	<path style="fill:#ED5564;" d="M348.863,263.551c-4.172,4.171-10.92,4.171-15.092,0c-4.156-4.156-4.156-10.922,0-15.078
		c4.172-4.172,10.92-4.172,15.092,0C353.035,252.63,353.035,259.395,348.863,263.551z"/>
</g>
</svg>